<svg width="30" height="33" viewBox="0 0 30 33" fill="none" xmlns="http://www.w3.org/2000/svg">
<g filter="url(#filter0_d_10:115)">
<path d="M19.625 21.875V23.8281C19.625 24.4753 19.1003 25 18.4531 25H5.17188C4.52466 25 4 24.4753 4 23.8281V5.85938C4 5.21216 4.52466 4.6875 5.17188 4.6875H8.6875V19.1406C8.6875 20.6484 9.91411 21.875 11.4219 21.875H19.625ZM19.625 5.07812V0H11.4219C10.7747 0 10.25 0.524658 10.25 1.17188V19.1406C10.25 19.7878 10.7747 20.3125 11.4219 20.3125H24.7031C25.3503 20.3125 25.875 19.7878 25.875 19.1406V6.25H20.7969C20.1523 6.25 19.625 5.72266 19.625 5.07812ZM25.5318 3.56304L22.312 0.343213C22.0922 0.123458 21.7941 1.62498e-06 21.4833 0L21.1875 0V4.6875H25.875V4.39165C25.875 4.08086 25.7515 3.7828 25.5318 3.56304Z" fill="white"/>
<path d="M19.125 22.375V23.8281C19.125 24.1992 18.8242 24.5 18.4531 24.5H5.17188C4.8008 24.5 4.5 24.1992 4.5 23.8281V5.85938C4.5 5.4883 4.8008 5.1875 5.17188 5.1875H8.1875V19.1406C8.1875 20.9245 9.63797 22.375 11.4219 22.375H19.125ZM11.4219 0.5H19.125V5.07812C19.125 5.9988 19.8762 6.75 20.7969 6.75H25.375V19.1406C25.375 19.5117 25.0742 19.8125 24.7031 19.8125H11.4219C11.0508 19.8125 10.75 19.5117 10.75 19.1406V1.17188C10.75 0.800801 11.0508 0.5 11.4219 0.5ZM21.9584 0.696766L25.1782 3.91659C25.2548 3.99313 25.3109 4.08625 25.3432 4.1875H21.6875V0.531768C21.7888 0.564064 21.8819 0.620228 21.9584 0.696766Z" stroke="black"/>
</g>
<defs>
<filter id="filter0_d_10:115" x="0" y="0" width="29.875" height="33" filterUnits="userSpaceOnUse" color-interpolation-filters="sRGB">
<feFlood flood-opacity="0" result="BackgroundImageFix"/>
<feColorMatrix in="SourceAlpha" type="matrix" values="0 0 0 0 0 0 0 0 0 0 0 0 0 0 0 0 0 0 127 0" result="hardAlpha"/>
<feOffset dy="4"/>
<feGaussianBlur stdDeviation="2"/>
<feComposite in2="hardAlpha" operator="out"/>
<feColorMatrix type="matrix" values="0 0 0 0 0 0 0 0 0 0 0 0 0 0 0 0 0 0 0.25 0"/>
<feBlend mode="normal" in2="BackgroundImageFix" result="effect1_dropShadow_10:115"/>
<feBlend mode="normal" in="SourceGraphic" in2="effect1_dropShadow_10:115" result="shape"/>
</filter>
</defs>
</svg>
